# xmcd
#
# Track frame offsets: 
#        150
#        10961
#        24836
#        35711
#        47186
#        59405
#        71030
#        82655
#        94430
#        108680
#        123830
#        136280
#        146480
#        161405
#        172955
#        185480
#
# Disc length: 2636 seconds
#
# Revision: 1
# Processed by: cddbd v1.5.2PL0 Copyright (c) Steve Scherf et al.
# Submitted via: ExactAudioCopyFreeDBPlugin 1.0
#
DISCID=d80a4a10
DTITLE=Muddy Waters - Muddy Jumps One
DYEAR=2003
DGENRE=Blues
TTITLE0=Muddy Jumps One
TTITLE1=I Be's Troubled
TTITLE2=Stand Here Tremblin'
TTITLE3=Goin' Home
TTITLE4=I Can't Be Satisfied
TTITLE5=You're Gonna Miss Me
TTITLE6=Sittin' Here and Drinkin' (Whiskey Blues)
TTITLE7=Kind Hearted Woman
TTITLE8=I Feel Like Going Home
TTITLE9=32-20 Blues
TTITLE10=Hard Day Blues
TTITLE11=Mean Red Spider
TTITLE12=Streamline Woman
TTITLE13=Gipsy Woman
TTITLE14=Train Fare Home Blues
TTITLE15=Good Looking Woman
EXTD=
EXTT0=
EXTT1=
EXTT2=
EXTT3=
EXTT4=
EXTT5=
EXTT6=
EXTT7=
EXTT8=
EXTT9=
EXTT10=
EXTT11=
EXTT12=
EXTT13=
EXTT14=
EXTT15=
PLAYORDER=
